<?xml version="1.0" encoding="iso-8859-1"?>
<!-- Generator: Adobe Illustrator 19.0.0, SVG Export Plug-In . SVG Version: 6.00 Build 0)  -->
<svg version="1.1" id="Capa_1" xmlns="http://www.w3.org/2000/svg" xmlns:xlink="http://www.w3.org/1999/xlink" x="0px" y="0px"
	viewBox="0 0 490 490" style="enable-background:new 0 0 490 490;" xml:space="preserve">
	<g>
		<path d="M396.832,111.698H293.87v159.706L157.373,71.866l-0.016,0.011c-8.154-12.017-21.925-19.928-37.509-19.928
			c-24.979,0-45.3,20.322-45.3,45.3v84.481h10c13.95,0,25.3,11.35,25.3,25.3s-11.35,25.3-25.3,25.3s-25.3-11.35-25.3-25.3h-20
			c0,24.979,20.321,45.3,45.3,45.3s45.3-20.321,45.3-45.3c0-21.544-15.116-39.623-35.3-44.188v-28.034
			c7.229,4.885,15.937,7.74,25.3,7.74c13.116,0,24.941-5.608,33.222-14.546l42.752,158.854L0,286.85v93.131v2.588h35.512c0,0,0,0,0,0
			c0,30.594,24.883,55.481,55.477,55.481s55.487-24.888,55.487-55.481c0,0,0,0,0,0h189.981c0,0,0,0,0,0
			c0,30.594,24.883,55.481,55.477,55.481c30.595,0,55.488-24.888,55.488-55.481c0,0,0,0,0,0H490V224.14L396.832,111.698z
			M119.848,122.549c-13.95,0-25.3-11.35-25.3-25.3c0-13.951,11.35-25.3,25.3-25.3c13.951,0,25.3,11.35,25.3,25.3
			C145.149,111.199,133.799,122.549,119.848,122.549z M175.233,133.397l104.978,153.463l-63.678-0.003L175.233,133.397z M90.99,417.2
			c-19.09,0-34.626-15.536-34.626-34.63c0-19.095,15.536-34.631,34.626-34.631c19.099,0,34.636,15.536,34.636,34.631
			C125.625,401.664,110.089,417.2,90.99,417.2z M142.395,361.718c-8.261-20.288-28.184-34.631-51.406-34.631
			S47.85,341.43,39.592,361.718H20V306.85l273.87,0.01v54.857H142.395z M391.935,417.2c-19.09,0-34.626-15.536-34.626-34.63
			c0-19.095,15.536-34.631,34.626-34.631c19.1,0,34.637,15.536,34.637,34.631C426.572,401.664,411.035,417.2,391.935,417.2z
			M469.149,361.718h-25.807c-8.261-20.288-28.185-34.631-51.406-34.631c-23.221,0-43.139,14.343-51.398,34.631H314.72V132.549
			h72.318l82.11,99.105V361.718z"/>
		<path d="M333.597,158.247v74.801h108.276l-60.069-74.801H333.597z M354.448,212.197v-33.099h17.358l26.574,33.099H354.448z"/>
	</g>
</svg>
